<svg xmlns="http://www.w3.org/2000/svg" height="20" width="20"><path d="M10 18.25q-1.708 0-3.208-.656-1.5-.656-2.615-1.771-1.115-1.115-1.771-2.615-.656-1.5-.656-3.208 0-1.708.656-3.208.656-1.5 1.771-2.615 1.115-1.115 2.615-1.771Q8.292 1.75 10 1.75q1.708 0 3.208.656 1.5.656 2.615 1.771 1.115 1.115 1.771 2.615.656 1.5.656 3.208v1.375q0 1.292-.865 2.042-.864.75-1.989.75-.729 0-1.323-.334-.594-.333-1.031-.937-.604.583-1.407.927-.802.344-1.635.344-1.729 0-2.948-1.219Q5.833 11.729 5.833 10q0-1.75 1.219-2.958Q8.271 5.833 10 5.833q1.75 0 2.958 1.219Q14.167 8.271 14.167 10v1.375q0 .375.354.771t.875.396q.521 0 .875-.396t.354-.771V10q0-2.771-1.927-4.698Q12.771 3.375 10 3.375q-2.771 0-4.698 1.927Q3.375 7.229 3.375 10q0 2.771 1.927 4.698Q7.229 16.625 10 16.625h4.083v1.625Zm0-5.708q1.062 0 1.802-.74t.74-1.802q0-1.062-.74-1.802T10 7.458q-1.062 0-1.802.74T7.458 10q0 1.062.74 1.802t1.802.74Z"/></svg>